<svg xmlns="http://www.w3.org/2000/svg" width="29.932" height="21.365" viewBox="0 0 29.932 21.365">
  <g id="dig" transform="translate(-1108.922 -8240.514)">
    <path id="Layer_2" d="M28.739,18.761a12.657,12.657,0,0,0-7.181-2.667l-.359.41a16.844,16.844,0,0,1,6.387,3.232,22.1,22.1,0,0,0-20.673,0,16.829,16.829,0,0,1,6.72-3.334l-.256-.308a12.71,12.71,0,0,0-7.181,2.667A33.865,33.865,0,0,0,2.5,33.586s2.154,3.693,7.823,3.873c0,0,.949-1.129,1.718-2.1a8.015,8.015,0,0,1-4.489-3,19,19,0,0,0,6.694,2.591A18.541,18.541,0,0,0,27.56,32.355a8.132,8.132,0,0,1-4.642,3.027c.769.949,1.693,2.052,1.693,2.052,5.668-.179,7.822-3.873,7.822-3.847A33.865,33.865,0,0,0,28.739,18.761ZM12.683,31.2a2.726,2.726,0,0,1-2.616-2.821,2.623,2.623,0,1,1,5.232,0A2.71,2.71,0,0,1,12.683,31.2Zm9.362,0a2.726,2.726,0,0,1-2.616-2.821,2.623,2.623,0,1,1,5.232,0A2.71,2.71,0,0,1,22.045,31.2Z" transform="translate(1106.421 8224.42)" fill="#00ff54"/>
  </g>
</svg>
