<svg xmlns="http://www.w3.org/2000/svg" width="23.448" height="23.448" viewBox="0 0 23.448 23.448">
  <g id="footer-green-inst" transform="translate(-4 -9)">
    <g id="Black" transform="translate(4 9)">
      <path id="Instagram" d="M511.724,160c-3.184,0-3.583.014-4.834.07a8.613,8.613,0,0,0-2.846.545,6,6,0,0,0-3.429,3.429,8.6,8.6,0,0,0-.545,2.846c-.057,1.251-.07,1.65-.07,4.834s.014,3.583.07,4.834a8.611,8.611,0,0,0,.545,2.846,6,6,0,0,0,3.429,3.429,8.629,8.629,0,0,0,2.846.545c1.251.057,1.65.07,4.834.07s3.583-.014,4.834-.07a8.611,8.611,0,0,0,2.846-.545,6,6,0,0,0,3.429-3.429,8.627,8.627,0,0,0,.545-2.846c.057-1.251.07-1.65.07-4.834s-.014-3.583-.07-4.834a8.607,8.607,0,0,0-.545-2.846,6,6,0,0,0-3.429-3.429,8.6,8.6,0,0,0-2.846-.545C515.307,160.014,514.908,160,511.724,160Zm0,2.112c3.13,0,3.5.012,4.737.068a6.49,6.49,0,0,1,2.177.4,3.878,3.878,0,0,1,2.225,2.225,6.469,6.469,0,0,1,.4,2.177c.056,1.236.068,1.607.068,4.738s-.012,3.5-.068,4.738a6.491,6.491,0,0,1-.4,2.177,3.878,3.878,0,0,1-2.225,2.225,6.466,6.466,0,0,1-2.177.4c-1.236.056-1.607.068-4.737.068s-3.5-.012-4.738-.068a6.489,6.489,0,0,1-2.177-.4,3.877,3.877,0,0,1-2.225-2.225,6.467,6.467,0,0,1-.4-2.177c-.056-1.236-.068-1.607-.068-4.737s.012-3.5.068-4.738a6.488,6.488,0,0,1,.4-2.177,3.877,3.877,0,0,1,2.225-2.225,6.468,6.468,0,0,1,2.177-.4C508.223,162.124,508.594,162.112,511.724,162.112Zm0,3.591a6.02,6.02,0,1,0,6.02,6.02A6.02,6.02,0,0,0,511.724,165.7Zm0,9.928a3.908,3.908,0,1,1,3.908-3.908A3.908,3.908,0,0,1,511.724,175.632Zm7.665-10.166a1.407,1.407,0,1,1-1.407-1.407A1.407,1.407,0,0,1,519.389,165.466Z" transform="translate(-500 -160)" fill="#00ff54" fill-rule="evenodd"/>
    </g>
  </g>
</svg>
