<svg xmlns="http://www.w3.org/2000/svg" width="29.001" height="26.12" viewBox="0 0 29.001 26.12">
  <g id="greenship" transform="translate(-13.428 -13.678)">
    <g id="Group_56" data-name="Group 56">
      <g id="Group_55" data-name="Group 55">
        <g id="Group_2" data-name="Group 2" transform="translate(13.428 13.678)">
          <path id="Path_3" data-name="Path 3" d="M963.038,529.694a4.19,4.19,0,0,1,.1,1.8,1.44,1.44,0,0,1-.277.207,7.157,7.157,0,0,0-3.647,3.393,14.925,14.925,0,0,1-1.856,2.678,4.336,4.336,0,0,1-3.428,1.591c-3.961-.024-7.922.012-11.883-.014a7.878,7.878,0,0,1-7.854-7.385,1.6,1.6,0,0,1,.1-.785h6.989a.7.7,0,0,1,.089.156c.387,2.119,1.035,2.659,3.2,2.659h2.51a10.974,10.974,0,0,0,.054-2.517c-1.149-.227-2.308.054-3.395-.166-.1-.364.118-.526.235-.721q.634-1.066,1.281-2.123a8.709,8.709,0,0,0,.75-7.179,27.558,27.558,0,0,0-2.14-5.388.825.825,0,0,1-.159-.711l3.35.85a3.7,3.7,0,0,0,.12-1.3c.07-.932.606-1.513,1.392-1.491a1.405,1.405,0,0,1,1.306,1.568c.009.588.008,1.175.015,1.762a1.1,1.1,0,0,0,.043.2,20.112,20.112,0,0,1,4.2,4.056,10.6,10.6,0,0,1,1.4,2.422,4.74,4.74,0,0,1-.392,4.379,15.911,15.911,0,0,1-2.7,3.341,1.355,1.355,0,0,1-1.046.42,4.46,4.46,0,0,0-1.465.082,14.6,14.6,0,0,0-.025,2.476c1.743.017,3.509.445,4.793-1.185a4.116,4.116,0,0,1,2.349-1.4c1.748-.45,3.473-.99,5.208-1.49C962.494,529.819,962.725,529.77,963.038,529.694Z" transform="translate(-934.189 -513.249)" fill="#00ff54"/>
          <path id="Path_4" data-name="Path 4" d="M937.351,532.845l6.324-9.9.238.011a17.556,17.556,0,0,1,1.6,4.934c.331,1.948-.472,3.566-1.509,5.159h-6.521Z" transform="translate(-935.699 -517.881)" fill="#00ff54"/>
        </g>
      </g>
    </g>
  </g>
</svg>
