<svg xmlns="http://www.w3.org/2000/svg" width="48" height="48" viewBox="0 0 48 48">
  <g id="instragreen" transform="translate(-605 -7268)">
    <g id="Icons" transform="translate(605 7268)">
      <g id="Black" transform="translate(-500 -160)">
        <path id="Instagram" d="M524,160c-6.518,0-7.335.028-9.9.144a17.629,17.629,0,0,0-5.826,1.116,12.277,12.277,0,0,0-7.019,7.019,17.609,17.609,0,0,0-1.116,5.826c-.116,2.56-.144,3.377-.144,9.9s.028,7.335.144,9.9a17.63,17.63,0,0,0,1.116,5.826,12.283,12.283,0,0,0,7.019,7.02,17.663,17.663,0,0,0,5.826,1.115c2.56.116,3.377.144,9.9.144s7.335-.028,9.9-.144a17.629,17.629,0,0,0,5.826-1.116,12.283,12.283,0,0,0,7.02-7.019,17.664,17.664,0,0,0,1.115-5.826c.116-2.56.144-3.377.144-9.9s-.028-7.335-.144-9.9a17.629,17.629,0,0,0-1.116-5.826,12.277,12.277,0,0,0-7.019-7.019,17.608,17.608,0,0,0-5.826-1.116c-2.56-.116-3.377-.144-9.9-.144Zm0,4.324c6.408,0,7.167.025,9.7.14a13.284,13.284,0,0,1,4.457.827,7.937,7.937,0,0,1,4.554,4.555,13.24,13.24,0,0,1,.827,4.456c.115,2.53.14,3.29.14,9.7s-.025,7.167-.14,9.7a13.283,13.283,0,0,1-.827,4.457,7.937,7.937,0,0,1-4.555,4.554,13.239,13.239,0,0,1-4.456.827c-2.53.115-3.29.14-9.7.14s-7.168-.025-9.7-.14a13.284,13.284,0,0,1-4.457-.827,7.937,7.937,0,0,1-4.554-4.555,13.239,13.239,0,0,1-.827-4.456c-.115-2.53-.14-3.29-.14-9.7s.025-7.167.14-9.7a13.284,13.284,0,0,1,.827-4.457,7.937,7.937,0,0,1,4.555-4.554,13.239,13.239,0,0,1,4.456-.827C516.832,164.349,517.592,164.324,524,164.324Zm0,7.352A12.324,12.324,0,1,0,536.324,184,12.323,12.323,0,0,0,524,171.676ZM524,192a8,8,0,1,1,8-8A8,8,0,0,1,524,192Zm15.691-20.811a2.88,2.88,0,1,1-2.88-2.88A2.88,2.88,0,0,1,539.691,171.189Z" fill="#00ff54" fill-rule="evenodd"/>
      </g>
    </g>
  </g>
</svg>
