<svg id="instagram" xmlns="http://www.w3.org/2000/svg" width="15" height="15" viewBox="0 0 15 15">
  <g id="Black">
    <path id="Instagram-2" data-name="Instagram" d="M507.5,160c-2.037,0-2.292.009-3.092.045a5.509,5.509,0,0,0-1.821.349,3.837,3.837,0,0,0-2.193,2.193,5.5,5.5,0,0,0-.349,1.821c-.036.8-.045,1.055-.045,3.092s.009,2.292.045,3.092a5.509,5.509,0,0,0,.349,1.821,3.838,3.838,0,0,0,2.193,2.194,5.52,5.52,0,0,0,1.821.348c.8.036,1.055.045,3.092.045s2.292-.009,3.092-.045a5.509,5.509,0,0,0,1.821-.349,3.839,3.839,0,0,0,2.194-2.193,5.518,5.518,0,0,0,.348-1.821c.036-.8.045-1.055.045-3.092s-.009-2.292-.045-3.092a5.506,5.506,0,0,0-.349-1.821,3.837,3.837,0,0,0-2.193-2.193,5.5,5.5,0,0,0-1.821-.349C509.792,160.009,509.537,160,507.5,160Zm0,1.351c2,0,2.24.008,3.031.044a4.151,4.151,0,0,1,1.393.258,2.481,2.481,0,0,1,1.423,1.423,4.138,4.138,0,0,1,.258,1.392c.036.791.044,1.028.044,3.031s-.008,2.24-.044,3.031a4.152,4.152,0,0,1-.258,1.393,2.481,2.481,0,0,1-1.423,1.423,4.137,4.137,0,0,1-1.392.258c-.791.036-1.028.044-3.031.044s-2.24-.008-3.031-.044a4.151,4.151,0,0,1-1.393-.258,2.48,2.48,0,0,1-1.423-1.423,4.137,4.137,0,0,1-.258-1.393c-.036-.791-.044-1.028-.044-3.031s.008-2.24.044-3.031a4.151,4.151,0,0,1,.258-1.393,2.48,2.48,0,0,1,1.423-1.423,4.137,4.137,0,0,1,1.393-.258C505.26,161.359,505.5,161.351,507.5,161.351Zm0,2.3a3.851,3.851,0,1,0,3.851,3.851A3.851,3.851,0,0,0,507.5,163.649Zm0,6.351a2.5,2.5,0,1,1,2.5-2.5A2.5,2.5,0,0,1,507.5,170Zm4.9-6.5a.9.9,0,1,1-.9-.9A.9.9,0,0,1,512.4,163.5Z" transform="translate(-500 -160)" fill-rule="evenodd"/>
  </g>
</svg>
