<svg xmlns="http://www.w3.org/2000/svg" width="18.552" height="16.709" viewBox="0 0 18.552 16.709">
  <g id="ship" transform="translate(-1152.59 -40.75)">
    <g id="Group_2" data-name="Group 2" transform="translate(1152.59 40.75)">
      <path id="Path_3" data-name="Path 3" d="M952.644,523.769a2.681,2.681,0,0,1,.066,1.155.919.919,0,0,1-.177.132,4.578,4.578,0,0,0-2.333,2.171,9.547,9.547,0,0,1-1.187,1.713,2.774,2.774,0,0,1-2.193,1.018c-2.534-.015-5.068.008-7.6-.009a5.039,5.039,0,0,1-5.024-4.724,1.021,1.021,0,0,1,.066-.5h4.471a.449.449,0,0,1,.057.1c.247,1.356.662,1.7,2.047,1.7h1.606a7.018,7.018,0,0,0,.034-1.61c-.735-.145-1.476.035-2.172-.106-.064-.233.075-.336.15-.461q.406-.682.82-1.358a5.571,5.571,0,0,0,.48-4.593,17.628,17.628,0,0,0-1.369-3.447.528.528,0,0,1-.1-.455l2.143.544a2.367,2.367,0,0,0,.077-.834c.045-.6.388-.968.891-.954a.9.9,0,0,1,.835,1c.006.376,0,.752.01,1.127a.7.7,0,0,0,.027.13,12.866,12.866,0,0,1,2.687,2.595,6.787,6.787,0,0,1,.9,1.55,3.032,3.032,0,0,1-.251,2.8,10.176,10.176,0,0,1-1.725,2.137.867.867,0,0,1-.669.268,2.853,2.853,0,0,0-.937.053,9.339,9.339,0,0,0-.016,1.584c1.115.011,2.245.285,3.066-.758a2.633,2.633,0,0,1,1.5-.9c1.118-.288,2.222-.634,3.331-.953C952.3,523.849,952.444,523.818,952.644,523.769Z" transform="translate(-934.189 -513.249)"/>
      <path id="Path_4" data-name="Path 4" d="M937.351,529.279l4.046-6.332.152.007a11.23,11.23,0,0,1,1.024,3.157,4.53,4.53,0,0,1-.965,3.3h-4.171Z" transform="translate(-936.294 -519.706)"/>
    </g>
  </g>
</svg>
