<svg xmlns="http://www.w3.org/2000/svg" width="25.684" height="20.9" viewBox="0 0 25.684 20.9">
  <g id="twitter1" transform="translate(-14.069 -17.195)">
    <path id="Path_6" data-name="Path 6" d="M45.784,66.476a10.653,10.653,0,0,1-3.026.833,5.288,5.288,0,0,0,2.319-2.917,10.471,10.471,0,0,1-3.347,1.279,5.268,5.268,0,0,0-9.116,3.6,5.159,5.159,0,0,0,.136,1.2,14.933,14.933,0,0,1-10.863-5.513,5.28,5.28,0,0,0,1.638,7.043,5.146,5.146,0,0,1-2.395-.659v.065a5.274,5.274,0,0,0,4.229,5.17,5.3,5.3,0,0,1-1.388.185,4.97,4.97,0,0,1-.991-.1A5.278,5.278,0,0,0,27.9,80.333a10.565,10.565,0,0,1-6.547,2.259,10.682,10.682,0,0,1-1.257-.076A14.729,14.729,0,0,0,28.166,84.9,14.9,14.9,0,0,0,43.171,69.889c0-.229-.005-.457-.016-.68A10.727,10.727,0,0,0,45.784,66.476Z" transform="translate(-6.031 -46.805)" fill="#00ff54"/>
  </g>
</svg>
