<svg xmlns="http://www.w3.org/2000/svg" width="16.43" height="13.37" viewBox="0 0 16.43 13.37">
  <g id="Twitter" transform="translate(-1279 -44)">
    <path id="Path_6" data-name="Path 6" d="M36.53,65.584a6.815,6.815,0,0,1-1.936.533,3.383,3.383,0,0,0,1.483-1.866,6.7,6.7,0,0,1-2.141.818,3.37,3.37,0,0,0-5.832,2.3,3.3,3.3,0,0,0,.087.769,9.553,9.553,0,0,1-6.949-3.527,3.378,3.378,0,0,0,1.048,4.505,3.292,3.292,0,0,1-1.532-.421v.042a3.374,3.374,0,0,0,2.705,3.308,3.393,3.393,0,0,1-.888.118,3.18,3.18,0,0,1-.634-.063,3.376,3.376,0,0,0,3.151,2.343A6.758,6.758,0,0,1,20.9,75.893a6.833,6.833,0,0,1-.8-.049,9.422,9.422,0,0,0,5.16,1.525,9.534,9.534,0,0,0,9.6-9.6c0-.146,0-.292-.01-.435A6.862,6.862,0,0,0,36.53,65.584Z" transform="translate(1258.9 -20)"/>
  </g>
</svg>
